<svg xmlns="http://www.w3.org/2000/svg" viewBox="0 0 53.51 53.51"><defs><style>.cls-1{fill:none;stroke:#08a3f9;stroke-miterlimit:10;}.cls-2{fill:#004777;}.cls-3{fill:#001c39;}.cls-4{fill:#002a4d;}.cls-5{fill:#e2e2e2;}.cls-6{fill:#fff;}.cls-7{fill:#42bdd1;}.cls-8{fill:#7de3ff;}</style></defs><title>ca2Icon_1</title><g id="Capa_2" data-name="Capa 2"><g id="Capa_1-2" data-name="Capa 1"><rect class="cls-1" x="0.5" y="0.5" width="52.51" height="52.51"/><polygon class="cls-2" points="48.06 13.97 26.75 26.51 5.44 13.97 26.75 1.42 48.06 13.97"/><polygon class="cls-3" points="26.75 26.51 26.75 51.6 5.44 39.06 5.44 13.97 26.75 26.51"/><polygon class="cls-4" points="48.06 13.97 48.06 39.06 26.75 51.6 26.75 26.51 48.06 13.97"/><polygon class="cls-5" points="26.75 26.51 26.75 48.05 15.99 37.28 26.75 26.51"/><polygon class="cls-6" points="37.52 37.28 26.75 48.05 26.75 26.51 37.52 37.28"/><polygon class="cls-7" points="26.75 1.42 26.75 26.84 14.04 14.13 26.75 1.42"/><polygon class="cls-8" points="39.47 14.13 26.75 26.84 26.75 1.42 39.47 14.13"/></g></g></svg>