<svg xmlns="http://www.w3.org/2000/svg" viewBox="0 0 193.93 228.3"><defs><style>.cls-1{fill:#ff8334;}.cls-2{fill:#c95a23;}.cls-3{fill:#f77128;}.cls-4{opacity:0.7;}.cls-5{fill:#fff;}</style></defs><title>gummi logo</title><g id="Capa_2" data-name="Capa 2"><g id="Capa_1-2" data-name="Capa 1"><polygon class="cls-1" points="193.93 57.08 96.97 114.16 0 57.08 96.97 0 193.93 57.08"/><polygon class="cls-2" points="96.97 114.16 96.97 228.3 0 171.25 0 57.08 96.97 114.16"/><polygon class="cls-3" points="193.93 57.08 193.93 171.25 96.97 228.3 96.97 114.16 193.93 57.08"/><g class="cls-4"><path class="cls-5" d="M152.21,111.81a8.17,8.17,0,0,1-.64,3l-11.81,32.43a14.56,14.56,0,0,1-4.46,6.38,11.37,11.37,0,0,1-7.44,3H31.52L55.66,90.23q6.69-18.51,23.18-18.51h72.09q11.48,0,11.48,9.79a26.28,26.28,0,0,1-1.81,8.82H98.08L80.75,138h43.81l4.89-13.19H105c-3.9,0-5.84-1.84-5.84-5.53q0-4.45,3.77-8.77a11.48,11.48,0,0,1,8.88-4.3h33.71Q152.2,106.18,152.21,111.81Z"/></g></g></g></svg>