<svg xmlns="http://www.w3.org/2000/svg" viewBox="0 0 499.71 440.57"><defs><style>.cls-1{fill:#fff;}</style></defs><title>mickey</title><g id="Capa_2" data-name="Capa 2"><g id="Capa_1-2" data-name="Capa 1"><g id="AdRqct.tif"><path class="cls-1" d="M218.86,97.2c16.61,0,32.88,0,49.14,0a45.18,45.18,0,0,1,8.91,1c3.57.74,5-.73,5.15-4.06.13-3,.13-6,.39-9,2.43-28.3,13.94-51.71,37.59-68.24,8.15-5.7,17.19-9.49,26.88-12.4C362.71-.22,378.7-.73,394.67.71c12.35,1.11,24.21,5.2,35.67,10.5a122.33,122.33,0,0,1,41.15,30.67c8.33,9.46,14.18,20.31,19.22,31.86a106,106,0,0,1,8.67,51.2c-2.65,34.71-17.28,62.51-49.47,78.69-6.72,3.38-14.46,4.8-21.81,6.86-4.28,1.21-8.71,1.91-14,3,.9,4.5,1.37,9.35,2.87,13.86,4.15,12.49,4.72,25.35,4.74,38.29,0,8.17.45,16.44-.69,24.46-1.32,9.39-4.2,18.56-6.32,27.84-3,13.34-9.14,25.3-16,37A170.87,170.87,0,0,1,309,429.83c-13.48,4.79-27.1,8.82-41.54,9.36-9.76.37-19.59,2-29.23,1.16-10.78-.89-21.37-3.91-32-5.92-13.31-2.5-25.48-8-37.37-14.16-18.49-9.6-34.21-22.56-48.16-38.14a173.69,173.69,0,0,1-28.54-43.82c-4.57-10-6.88-21-10.23-31.6-5-15.78-5.23-32.06-4.33-48.31.46-8.2,2.48-16.32,4-24.44,1.28-6.88,2.84-13.71,4.26-20.49-8.68-1.84-17.81-2.94-26.37-5.76A79.17,79.17,0,0,1,24,184.32C13.61,172.41,6.45,158.87,3.27,143.4,1.7,135.73-.07,127.89,0,120.14A148.59,148.59,0,0,1,3.27,92.23c6.2-30.78,23.67-54.13,49.1-71.8C63,13,74.75,8.11,87.35,4.59,101.66.59,116-.17,130.64.31c13,.42,25.19,4.33,36.88,9.79A84.93,84.93,0,0,1,200,36.81a82,82,0,0,1,16.32,41.41C217,84.91,218.09,91.56,218.86,97.2Z"/></g></g></g></svg>