<svg xmlns="http://www.w3.org/2000/svg" viewBox="0 0 480.72 318.76"><defs><style>.cls-1{fill:#7de3ff;}.cls-2{fill:#07b1d8;}.cls-3{fill:#686867;}.cls-4{fill:#878787;}</style></defs><title>padIcon_1</title><g id="Capa_2" data-name="Capa 2"><g id="Capa_1-2" data-name="Capa 1"><path class="cls-1" d="M426.4,78.81a37.34,37.34,0,0,1-5.52,19.12,48.17,48.17,0,0,1-2.74,4.17c-23.45,32.16-94.17,55.52-177.78,55.52S86,134.26,62.58,102.1a48.17,48.17,0,0,1-2.74-4.17,37.34,37.34,0,0,1-5.52-19.12C54.32,35.28,137.61,0,240.36,0S426.4,35.28,426.4,78.81Z"/><path class="cls-2" d="M388.37,78.81A29.73,29.73,0,0,1,384,94a39.41,39.41,0,0,1-2.18,3.32c-18.66,25.59-74.92,44.17-141.44,44.17S117.58,122.93,98.92,97.34A39.41,39.41,0,0,1,96.74,94a29.73,29.73,0,0,1-4.39-15.21c0-34.63,66.26-62.7,148-62.7S388.37,44.18,388.37,78.81Z"/><path class="cls-1" d="M346.43,78.81a21.27,21.27,0,0,1-3.15,10.9,24.91,24.91,0,0,1-1.56,2.38c-13.37,18.34-53.69,31.65-101.36,31.65s-88-13.31-101.36-31.65a24.91,24.91,0,0,1-1.56-2.38,21.27,21.27,0,0,1-3.15-10.9c0-24.82,47.49-44.93,106.07-44.93S346.43,54,346.43,78.81Z"/><path class="cls-3" d="M426.4,78.81V125.4c0,43.52-83.29,78.81-186,78.81s-186-35.29-186-78.81V78.81a37.34,37.34,0,0,0,5.52,19.12,48.17,48.17,0,0,0,2.74,4.17c23.45,32.16,94.17,55.52,177.78,55.52s154.33-23.36,177.78-55.52a48.17,48.17,0,0,0,2.74-4.17A37.34,37.34,0,0,0,426.4,78.81Z"/><path class="cls-4" d="M480.72,165.15c0,8.95-2.72,17.63-7.85,25.9C445.84,234.74,352,267,240.36,267S34.88,234.74,7.85,191.05A51.39,51.39,0,0,1,.62,172.5,44.11,44.11,0,0,1,0,165.15c0-24.47,20.37-46.92,54.32-64.46V125.4c0,43.52,83.29,78.81,186,78.81s186-35.29,186-78.81V100.69C460.35,118.23,480.72,140.68,480.72,165.15Z"/><path class="cls-3" d="M480.72,165.15v51.79c0,56.24-107.61,101.82-240.36,101.82S0,273.18,0,216.94a43.9,43.9,0,0,1,.62-7.34V172.5a51.39,51.39,0,0,0,7.23,18.55C34.88,234.74,128.73,267,240.36,267s205.48-32.23,232.51-75.92C478,182.78,480.72,174.1,480.72,165.15Z"/><path class="cls-2" d="M304.62,78.81a12.83,12.83,0,0,1-1.9,6.6c-.29.49-.6,1-1,1.45C293.67,98,269.24,106,240.36,106S187.05,98,179,86.86c-.35-.48-.66-1-.95-1.45a12.83,12.83,0,0,1-1.9-6.6c0-15,28.77-27.22,64.26-27.22S304.62,63.77,304.62,78.81Z"/></g></g></svg>