<svg xmlns="http://www.w3.org/2000/svg" xmlns:xlink="http://www.w3.org/1999/xlink" viewBox="0 0 243.6 174.81"><defs><style>.cls-1{fill:#003162;}.cls-2{opacity:0.4;}.cls-3{opacity:0.5;}.cls-10,.cls-11,.cls-4,.cls-5,.cls-6,.cls-9{fill:none;stroke-miterlimit:10;}.cls-4,.cls-5,.cls-6{stroke:#4aa6c7;}.cls-5{stroke-dasharray:4.04 4.04;}.cls-6{stroke-dasharray:3.98 3.98;}.cls-7{fill:url(#Degradado_sin_nombre_123);}.cls-8{fill:url(#Degradado_sin_nombre_105);}.cls-9{stroke:#1e637f;stroke-width:5px;}.cls-10{stroke:#00314f;stroke-width:3px;}.cls-11{stroke:#7dbad7;}</style><radialGradient id="Degradado_sin_nombre_123" cx="121.8" cy="87.4" r="62.61" gradientUnits="userSpaceOnUse"><stop offset="0" stop-color="#7de3ff"/><stop offset="0.21" stop-color="#81daf4" stop-opacity="0.73"/><stop offset="0.79" stop-color="#8ac2d8" stop-opacity="0"/></radialGradient><linearGradient id="Degradado_sin_nombre_105" x1="-2065.46" y1="-2990.26" x2="-2065.46" y2="-3052.3" gradientTransform="translate(-1943.66 -2879.99) rotate(180)" gradientUnits="userSpaceOnUse"><stop offset="0" stop-color="#8bc0d6" stop-opacity="0"/><stop offset="0.26" stop-color="#8bc0d6" stop-opacity="0.01"/><stop offset="0.39" stop-color="#8ac1d8" stop-opacity="0.04"/><stop offset="0.5" stop-color="#8ac3da" stop-opacity="0.09"/><stop offset="0.6" stop-color="#89c6dd" stop-opacity="0.17"/><stop offset="0.68" stop-color="#87c9e1" stop-opacity="0.27"/><stop offset="0.76" stop-color="#86cee6" stop-opacity="0.39"/><stop offset="0.83" stop-color="#84d3ec" stop-opacity="0.53"/><stop offset="0.9" stop-color="#81d9f3" stop-opacity="0.7"/><stop offset="0.96" stop-color="#7fdffa" stop-opacity="0.88"/><stop offset="1" stop-color="#7de3ff"/></linearGradient></defs><title>partShowcase</title><g id="Capa_2" data-name="Capa 2"><g id="Capa_1-2" data-name="Capa 1"><polygon class="cls-1" points="10.77 172.31 232.83 172.31 241.1 164.39 241.1 10.42 232.83 2.5 10.77 2.5 2.5 10.42 2.5 164.39 10.77 172.31"/><g class="cls-2"><g class="cls-3"><line class="cls-4" x1="15.83" y1="2.5" x2="15.83" y2="4.5"/><line class="cls-5" x1="15.83" y1="8.54" x2="15.83" y2="168.29"/><line class="cls-4" x1="15.83" y1="170.31" x2="15.83" y2="172.31"/></g><g class="cls-3"><line class="cls-4" x1="36.83" y1="2.5" x2="36.83" y2="4.5"/><line class="cls-5" x1="36.83" y1="8.54" x2="36.83" y2="168.29"/><line class="cls-4" x1="36.83" y1="170.31" x2="36.83" y2="172.31"/></g><g class="cls-3"><line class="cls-4" x1="61.82" y1="2.5" x2="61.82" y2="4.5"/><line class="cls-5" x1="61.82" y1="8.54" x2="61.82" y2="168.29"/><line class="cls-4" x1="61.82" y1="170.31" x2="61.82" y2="172.31"/></g><g class="cls-3"><line class="cls-4" x1="86.31" y1="2.5" x2="86.31" y2="4.5"/><line class="cls-5" x1="86.31" y1="8.54" x2="86.31" y2="168.29"/><line class="cls-4" x1="86.31" y1="170.31" x2="86.31" y2="172.31"/></g><g class="cls-3"><line class="cls-4" x1="110.8" y1="2.5" x2="110.8" y2="4.5"/><line class="cls-5" x1="110.8" y1="8.54" x2="110.8" y2="168.29"/><line class="cls-4" x1="110.8" y1="170.31" x2="110.8" y2="172.31"/></g><g class="cls-3"><line class="cls-4" x1="133.79" y1="2.5" x2="133.79" y2="4.5"/><line class="cls-5" x1="133.79" y1="8.54" x2="133.79" y2="168.29"/><line class="cls-4" x1="133.79" y1="170.31" x2="133.79" y2="172.31"/></g><g class="cls-3"><line class="cls-4" x1="158.79" y1="2.5" x2="158.79" y2="4.5"/><line class="cls-5" x1="158.79" y1="8.54" x2="158.79" y2="168.29"/><line class="cls-4" x1="158.79" y1="170.31" x2="158.79" y2="172.31"/></g><g class="cls-3"><line class="cls-4" x1="182.78" y1="2.5" x2="182.78" y2="4.5"/><line class="cls-5" x1="182.78" y1="8.54" x2="182.78" y2="168.29"/><line class="cls-4" x1="182.78" y1="170.31" x2="182.78" y2="172.31"/></g><g class="cls-3"><line class="cls-4" x1="205.77" y1="2.5" x2="205.77" y2="4.5"/><line class="cls-5" x1="205.77" y1="8.54" x2="205.77" y2="168.29"/><line class="cls-4" x1="205.77" y1="170.31" x2="205.77" y2="172.31"/></g><g class="cls-3"><line class="cls-4" x1="229.77" y1="2.5" x2="229.77" y2="4.5"/><line class="cls-5" x1="229.77" y1="8.54" x2="229.77" y2="168.29"/><line class="cls-4" x1="229.77" y1="170.31" x2="229.77" y2="172.31"/></g><g class="cls-3"><line class="cls-4" x1="241.1" y1="9.84" x2="239.1" y2="9.84"/><line class="cls-6" x1="235.12" y1="9.84" x2="6.49" y2="9.84"/><line class="cls-4" x1="4.5" y1="9.84" x2="2.5" y2="9.84"/></g><g class="cls-3"><line class="cls-4" x1="241.1" y1="25.42" x2="239.1" y2="25.42"/><line class="cls-6" x1="235.12" y1="25.42" x2="6.49" y2="25.42"/><line class="cls-4" x1="4.5" y1="25.42" x2="2.5" y2="25.42"/></g><g class="cls-3"><line class="cls-4" x1="241.1" y1="40.99" x2="239.1" y2="40.99"/><line class="cls-6" x1="235.12" y1="40.99" x2="6.49" y2="40.99"/><line class="cls-4" x1="4.5" y1="40.99" x2="2.5" y2="40.99"/></g><g class="cls-3"><line class="cls-4" x1="241.1" y1="56.57" x2="239.1" y2="56.57"/><line class="cls-6" x1="235.12" y1="56.57" x2="6.49" y2="56.57"/><line class="cls-4" x1="4.5" y1="56.57" x2="2.5" y2="56.57"/></g><g class="cls-3"><line class="cls-4" x1="241.1" y1="72.14" x2="239.1" y2="72.14"/><line class="cls-6" x1="235.12" y1="72.14" x2="6.49" y2="72.14"/><line class="cls-4" x1="4.5" y1="72.14" x2="2.5" y2="72.14"/></g><g class="cls-3"><line class="cls-4" x1="241.1" y1="87.72" x2="239.1" y2="87.72"/><line class="cls-6" x1="235.12" y1="87.72" x2="6.49" y2="87.72"/><line class="cls-4" x1="4.5" y1="87.72" x2="2.5" y2="87.72"/></g><g class="cls-3"><line class="cls-4" x1="241.1" y1="103.29" x2="239.1" y2="103.29"/><line class="cls-6" x1="235.12" y1="103.29" x2="6.49" y2="103.29"/><line class="cls-4" x1="4.5" y1="103.29" x2="2.5" y2="103.29"/></g><g class="cls-3"><line class="cls-4" x1="241.1" y1="118.86" x2="239.1" y2="118.86"/><line class="cls-6" x1="235.12" y1="118.86" x2="6.49" y2="118.86"/><line class="cls-4" x1="4.5" y1="118.86" x2="2.5" y2="118.86"/></g><g class="cls-3"><line class="cls-4" x1="241.1" y1="134.44" x2="239.1" y2="134.44"/><line class="cls-6" x1="235.12" y1="134.44" x2="6.49" y2="134.44"/><line class="cls-4" x1="4.5" y1="134.44" x2="2.5" y2="134.44"/></g><g class="cls-3"><line class="cls-4" x1="241.1" y1="150.01" x2="239.1" y2="150.01"/><line class="cls-6" x1="235.12" y1="150.01" x2="6.49" y2="150.01"/><line class="cls-4" x1="4.5" y1="150.01" x2="2.5" y2="150.01"/></g><g class="cls-3"><line class="cls-4" x1="241.1" y1="165.59" x2="239.1" y2="165.59"/><line class="cls-6" x1="235.12" y1="165.59" x2="6.49" y2="165.59"/><line class="cls-4" x1="4.5" y1="165.59" x2="2.5" y2="165.59"/></g></g><circle class="cls-7" cx="121.8" cy="87.4" r="62.61"/><polygon class="cls-8" points="241.1 110.27 241.1 169.06 232.83 172.31 10.77 172.31 2.5 165.59 2.5 110.27 241.1 110.27"/><polygon class="cls-9" points="2.5 164.39 10.77 172.31 232.83 172.31 241.1 164.39 241.1 163.99 241.1 10.42 232.83 2.5 10.77 2.5 2.5 10.42 2.5 163.99 2.5 164.39"/><polygon class="cls-10" points="2.5 164.39 10.77 172.31 232.83 172.31 241.1 164.39 241.1 163.99 241.1 10.42 232.83 2.5 10.77 2.5 2.5 10.42 2.5 163.99 2.5 164.39"/><polygon class="cls-11" points="2.5 164.39 10.77 172.31 232.83 172.31 241.1 164.39 241.1 163.99 241.1 10.42 232.83 2.5 10.77 2.5 2.5 10.42 2.5 163.99 2.5 164.39"/></g></g></svg>