<svg xmlns="http://www.w3.org/2000/svg" viewBox="0 0 53.51 53.51"><defs><style>.cls-1{fill:none;stroke:#08a3f9;stroke-miterlimit:10;}.cls-2{fill:#38d82b;}.cls-3{fill:#afafaf;}</style></defs><title>wea3Icon</title><g id="Capa_2" data-name="Capa 2"><g id="Capa_1-2" data-name="Capa 1"><rect class="cls-1" x="0.5" y="0.5" width="52.51" height="52.51"/><line class="cls-2" x1="9.54" y1="33.26" x2="27.61" y2="15.19"/><circle class="cls-2" cx="37.41" cy="15.19" r="9.8"/><line class="cls-2" x1="29.14" y1="33.26" x2="47.21" y2="15.19"/><path class="cls-2" d="M12.16,26.59S29.83,7.8,32.45,6.74,46.23,19.46,46.23,19.46s-4.3,8.75-20.23,21"/><path class="cls-3" d="M29.14,33.25a9.7,9.7,0,0,1-.95,4.21h0a14.49,14.49,0,0,1-2.31,3.09C19.64,47,7.28,47.29,7.28,47.29s.86-7.14,2.28-14.65c.19-1,.4-2,.63-2.89h0a9.8,9.8,0,0,1,19,3.5Z"/><path class="cls-3" d="M9.56,32.64a9.63,9.63,0,0,1,.63-2.89C10,30.67,9.75,31.64,9.56,32.64Z"/><path class="cls-3" d="M28.19,37.46a9.79,9.79,0,0,1-2.31,3.09A14.49,14.49,0,0,0,28.19,37.46Z"/></g></g></svg>