<svg xmlns="http://www.w3.org/2000/svg" xmlns:xlink="http://www.w3.org/1999/xlink" viewBox="0 0 30.36 24.18"><defs><style>.cls-1{fill:url(#Degradado_sin_nombre_13);}.cls-2{fill:url(#Degradado_sin_nombre_13-2);}</style><linearGradient id="Degradado_sin_nombre_13" x1="15.18" x2="15.18" y2="24.18" gradientUnits="userSpaceOnUse"><stop offset="0.56" stop-color="#fff"/><stop offset="1" stop-color="#b7f8fc"/></linearGradient><linearGradient id="Degradado_sin_nombre_13-2" x1="15.18" y1="8.74" x2="15.18" y2="19.69" xlink:href="#Degradado_sin_nombre_13"/></defs><title>wIcon</title><g id="Capa_2" data-name="Capa 2"><g id="Capa_1-2" data-name="Capa 1"><path class="cls-1" d="M15.18,0C-2.44-.23.13,24.18.13,24.18h30.1S32.81.23,15.18,0Zm0,22a7.74,7.74,0,1,1,7.74-7.74A7.74,7.74,0,0,1,15.18,22Z"/><path class="cls-2" d="M15.18,8.74a5.48,5.48,0,1,0,5.48,5.47A5.47,5.47,0,0,0,15.18,8.74Zm0,9.22a3.75,3.75,0,1,1,3.75-3.75A3.74,3.74,0,0,1,15.18,18Z"/></g></g></svg>