<?xml version="1.0" encoding="utf-8"?>
<!-- Generator: Adobe Illustrator 23.0.1, SVG Export Plug-In . SVG Version: 6.00 Build 0)  -->
<svg version="1.1" id="Capa_1" xmlns="http://www.w3.org/2000/svg" xmlns:xlink="http://www.w3.org/1999/xlink" x="0px" y="0px"
	 viewBox="0 0 201.4 201.4" style="enable-background:new 0 0 201.4 201.4;" xml:space="preserve">
<style type="text/css">
	.st0{fill:#FFFFFF;}
</style>
<path class="st0" d="M126.3,51.2H75.1c-1.9,0-3.4-1.5-3.4-3.4V29c0-16,13-29,29-29s29,13,29,29v18.8
	C129.7,49.7,128.2,51.2,126.3,51.2z M78.5,44.4h44.4V29c0-12.2-10-22.2-22.2-22.2S78.5,16.8,78.5,29V44.4z"/>
<polygon class="st0" points="175.8,64.9 25.6,64.9 35.8,47.8 165.5,47.8 "/>
<path d="M175.8,68.3H25.6c-1.2,0-2.4-0.7-3-1.7c-0.6-1.1-0.6-2.4,0-3.4L32.9,46c0.6-1,1.7-1.7,2.9-1.7h129.7c1.2,0,2.3,0.6,2.9,1.7
	l10.2,17.1c0.6,1.1,0.6,2.4,0,3.4C178.1,67.6,177,68.3,175.8,68.3z M31.6,61.4h138.1l-6.1-10.2H37.8L31.6,61.4z"/>
<polygon class="st0" points="182.6,198 18.8,198 25.6,64.9 175.8,64.9 "/>
<path d="M182.6,201.4H18.8c-0.9,0-1.8-0.4-2.5-1.1c-0.6-0.7-1-1.6-0.9-2.5l6.8-133.1c0.1-1.8,1.6-3.2,3.4-3.2h150.2
	c1.8,0,3.3,1.4,3.4,3.2l6.8,133.1c0,0.9-0.3,1.8-0.9,2.5C184.4,201,183.5,201.4,182.6,201.4z M22.4,194.6H179l-6.5-126.3H28.8
	L22.4,194.6z"/>
<circle cx="126.3" cy="85.3" r="6.8"/>
<circle cx="75.1" cy="85.3" r="6.8"/>
<path d="M100.7,136.5c-16,0-29-13-29-29V88.7c0-1.9,1.5-3.4,3.4-3.4s3.4,1.5,3.4,3.4v18.8c0,12.2,10,22.2,22.2,22.2
	s22.2-10,22.2-22.2V90.1c-0.2-0.4-0.3-0.8-0.3-1.3c0-1.9,1.5-3.4,3.4-3.4h0.3c1.9,0,3.4,1.5,3.4,3.4v18.8
	C129.7,123.5,116.7,136.5,100.7,136.5z"/>
</svg>
