<?xml version="1.0" encoding="utf-8"?>
<!-- Generator: Adobe Illustrator 23.0.1, SVG Export Plug-In . SVG Version: 6.00 Build 0)  -->
<svg version="1.1" id="Capa_1" xmlns="http://www.w3.org/2000/svg" xmlns:xlink="http://www.w3.org/1999/xlink" x="0px" y="0px"
	 viewBox="0 0 193.9 228.3" style="enable-background:new 0 0 193.9 228.3;" xml:space="preserve">
<style type="text/css">
	.st0{fill:#EFB40A;}
	.st1{fill:#90640C;}
	.st2{fill:#EF9E01;}
	.st3{opacity:0.7;}
	.st4{fill:#FFFFFF;}
</style>
<title>gummi logo</title>
<g>
	<g id="Capa_1-2">
		<polygon class="st0" points="193.9,57.1 97,114.2 0,57.1 97,0 		"/>
		<polygon class="st1" points="97,114.2 97,228.3 0,171.2 0,57.1 		"/>
		<polygon class="st2" points="193.9,57.1 193.9,171.2 97,228.3 97,114.2 		"/>
		<g class="st3">
			<path class="st4" d="M152.2,111.8c0,1-0.2,2-0.6,3l-11.8,32.4c-0.9,2.5-2.4,4.7-4.5,6.4c-2,1.9-4.7,2.9-7.4,3H31.5l24.1-66.4
				c4.5-12.3,12.2-18.5,23.2-18.5h72.1c7.7,0,11.5,3.3,11.5,9.8c-0.1,3-0.7,6-1.8,8.8H98.1L80.8,138h43.8l4.9-13.2H105
				c-3.9,0-5.8-1.8-5.8-5.5c0-3,1.3-5.9,3.8-8.8c2.2-2.7,5.4-4.3,8.9-4.3h33.7C150,106.2,152.2,108.1,152.2,111.8z"/>
		</g>
	</g>
</g>
</svg>
