<svg xmlns="http://www.w3.org/2000/svg" xmlns:xlink="http://www.w3.org/1999/xlink" viewBox="0 0 26.47 24.42"><defs><style>.cls-1{fill:#fff;}.cls-2{fill:url(#Degradado_sin_nombre_13);}.cls-3{fill:url(#Degradado_sin_nombre_13-2);}</style><linearGradient id="Degradado_sin_nombre_13" x1="20.62" y1="15.64" x2="20.62" y2="24.02" gradientUnits="userSpaceOnUse"><stop offset="0.56" stop-color="#fff"/><stop offset="1" stop-color="#b7f8fc"/></linearGradient><linearGradient id="Degradado_sin_nombre_13-2" x1="5.75" y1="15.67" x2="5.75" y2="24.42" xlink:href="#Degradado_sin_nombre_13"/></defs><title>mIcon</title><g id="Capa_2" data-name="Capa 2"><g id="Capa_1-2" data-name="Capa 1"><circle class="cls-1" cx="13.05" cy="15.49" r="2.37"/><path class="cls-1" d="M11.06,7.19a17.3,17.3,0,0,0,.46,5.23,2.37,2.37,0,0,1,3.33.15,17.12,17.12,0,0,0,.94-5.16c.19-4-.73-7.35-2-7.41S11.24,3.16,11.06,7.19Z"/><path class="cls-2" d="M21.3,17.71a17.39,17.39,0,0,0-4.82-2.07,2.38,2.38,0,0,1-.27,1.78,2.34,2.34,0,0,1-1.45,1.08,17.67,17.67,0,0,0,4.1,3.28c3.46,2.07,6.81,2.85,7.49,1.72S24.76,19.79,21.3,17.71Z"/><path class="cls-3" d="M7.55,21.91a17.65,17.65,0,0,0,3.94-3.46,2.35,2.35,0,0,1-1.83-2.78A17.5,17.5,0,0,0,4.93,18C1.56,20.17-.58,22.86.14,24S4.18,24.13,7.55,21.91Z"/></g></g></svg>