<svg xmlns="http://www.w3.org/2000/svg" viewBox="0 0 572.25 527.44"><defs><style>.cls-1{fill:none;stroke:#7de3ff;stroke-linecap:round;stroke-linejoin:round;}</style></defs><title>shipnet</title><g id="Capa_2" data-name="Capa 2"><g id="Capa_1-2" data-name="Capa 1"><line class="cls-1" x1="111.72" y1="263.82" x2="460.21" y2="263.82"/><line class="cls-1" x1="109.61" y1="232.64" x2="463.37" y2="232.64"/><line class="cls-1" x1="107.44" y1="201.45" x2="464.43" y2="201.45"/><line class="cls-1" x1="105.28" y1="170.27" x2="466.51" y2="170.27"/><line class="cls-1" x1="103.2" y1="139.08" x2="468.7" y2="139.08"/><line class="cls-1" x1="100.28" y1="102.6" x2="471.74" y2="102.6"/><line class="cls-1" x1="97.97" y1="70.73" x2="473.73" y2="70.73"/><line class="cls-1" x1="95.87" y1="36.95" x2="475.7" y2="36.95"/><polyline class="cls-1" points="115.82 322.19 93.5 0.5 478.2 0.5"/><line class="cls-1" x1="113.85" y1="293.86" x2="458.08" y2="293.86"/><line class="cls-1" x1="421.21" y1="322.19" x2="440.08" y2="0.5"/><line class="cls-1" x1="400.62" y1="0.5" x2="387.33" y2="322.19"/><line class="cls-1" x1="362.03" y1="0.5" x2="353.88" y2="322.19"/><line class="cls-1" x1="323.43" y1="0.5" x2="320.86" y2="322.19"/><line class="cls-1" x1="285.79" y1="0.5" x2="286.01" y2="322.19"/><line class="cls-1" x1="131.74" y1="0.5" x2="148.9" y2="322.19"/><line class="cls-1" x1="181.92" y1="322.19" x2="170.77" y2="0.5"/><line class="cls-1" x1="208.94" y1="0.5" x2="217.94" y2="322.19"/><line class="cls-1" x1="247.1" y1="0.5" x2="250.53" y2="322.19"/><polygon class="cls-1" points="456.43 322.19 524.84 526.94 47.36 526.94 115.82 322.19 456.43 322.19"/><line class="cls-1" x1="57.04" y1="498" x2="515.13" y2="498"/><polygon class="cls-1" points="93.5 0.5 0.5 93.05 47.36 526.94 115.82 322.19 93.5 0.5"/><line class="cls-1" x1="43.17" y1="488.17" x2="113.85" y2="293.86"/><line class="cls-1" x1="111.72" y1="263.82" x2="39.08" y2="450.24"/><line class="cls-1" x1="109.61" y1="232.64" x2="34.69" y2="409.6"/><line class="cls-1" x1="107.44" y1="201.45" x2="30.51" y2="370.91"/><line class="cls-1" x1="105.28" y1="170.27" x2="25.95" y2="328.67"/><line class="cls-1" x1="103.2" y1="139.08" x2="20.96" y2="282.47"/><line class="cls-1" x1="100.28" y1="102.6" x2="16.49" y2="241.14"/><line class="cls-1" x1="97.97" y1="70.73" x2="11.18" y2="191.95"/><line class="cls-1" x1="95.87" y1="36.95" x2="5.8" y2="142.14"/><line class="cls-1" x1="111.72" y1="334.44" x2="86.93" y2="7.05"/><line class="cls-1" x1="105.64" y1="352.64" x2="79.19" y2="14.75"/><line class="cls-1" x1="100.12" y1="369.13" x2="71.46" y2="22.43"/><line class="cls-1" x1="94.13" y1="387.05" x2="65.61" y2="28.25"/><line class="cls-1" x1="14.94" y1="78.68" x2="57.04" y2="498"/><polyline class="cls-1" points="26.04 67.64 65.61 472.35 506.63 472.35"/><line class="cls-1" x1="73.32" y1="449.3" x2="37.88" y2="55.86"/><line class="cls-1" x1="47.9" y1="45.88" x2="80.65" y2="427.39"/><line class="cls-1" x1="56.87" y1="36.95" x2="87.67" y2="406.4"/><polyline class="cls-1" points="456.43 322.19 478.74 0.5 571.75 93.05 524.89 526.94"/><line class="cls-1" x1="529.07" y1="488.17" x2="458.39" y2="293.86"/><line class="cls-1" x1="460.52" y1="263.82" x2="533.17" y2="450.24"/><line class="cls-1" x1="462.64" y1="232.64" x2="537.56" y2="409.6"/><line class="cls-1" x1="464.8" y1="201.45" x2="541.74" y2="370.91"/><line class="cls-1" x1="466.97" y1="170.27" x2="546.3" y2="328.67"/><line class="cls-1" x1="469.05" y1="139.08" x2="551.29" y2="282.47"/><line class="cls-1" x1="471.97" y1="102.6" x2="555.75" y2="241.14"/><line class="cls-1" x1="474.27" y1="70.73" x2="561.07" y2="191.95"/><line class="cls-1" x1="476.37" y1="36.95" x2="566.45" y2="142.14"/><polyline class="cls-1" points="485.32 7.04 460.52 334.45 111.72 334.44"/><polyline class="cls-1" points="493.06 14.74 466.61 352.64 105.64 352.64"/><polyline class="cls-1" points="500.78 22.43 472.12 369.13 100.12 369.13"/><polyline class="cls-1" points="506.63 28.25 478.11 387.05 94.13 387.05"/><line class="cls-1" x1="557.3" y1="78.68" x2="515.21" y2="498"/><line class="cls-1" x1="546.21" y1="67.64" x2="506.63" y2="472.35"/><polyline class="cls-1" points="534.37 55.86 498.93 449.3 73.32 449.3"/><polyline class="cls-1" points="524.34 45.88 491.6 427.39 80.64 427.39"/><polyline class="cls-1" points="515.37 36.95 484.58 406.4 87.67 406.4"/><line class="cls-1" x1="421.21" y1="322.19" x2="475.05" y2="526.94"/><line class="cls-1" x1="387.33" y1="322.19" x2="430.64" y2="526.94"/><line class="cls-1" x1="353.88" y1="322.19" x2="380.46" y2="526.94"/><line class="cls-1" x1="320.86" y1="322.19" x2="333.55" y2="526.94"/><line class="cls-1" x1="286.01" y1="322.19" x2="285.79" y2="526.94"/><line class="cls-1" x1="250.53" y1="322.19" x2="237.47" y2="526.94"/><line class="cls-1" x1="217.94" y1="322.19" x2="190.56" y2="526.94"/><line class="cls-1" x1="181.92" y1="322.19" x2="144.38" y2="526.94"/><line class="cls-1" x1="148.9" y1="322.19" x2="99.32" y2="526.94"/></g></g></svg>