<svg xmlns="http://www.w3.org/2000/svg" viewBox="0 0 53.51 53.51"><defs><style>.cls-1{fill:none;stroke:#08a3f9;stroke-miterlimit:10;}.cls-2{fill:#d3334f;}.cls-3{fill:#af243a;}.cls-4{fill:#c13447;}.cls-5{fill:#4f4e4e;}.cls-6{fill:#232222;}.cls-7{fill:#514f4f;}</style></defs><title>wea1Icon</title><g id="Capa_2" data-name="Capa 2"><g id="Capa_1-2" data-name="Capa 1"><rect class="cls-1" x="0.5" y="0.5" width="52.51" height="52.51"/><polygon class="cls-2" points="11.45 24.66 23.82 31.94 38.77 23.14 48.54 17.38 36.18 10.1 36.18 10.11 11.45 24.66"/><polygon class="cls-3" points="11.45 24.66 11.45 36.17 23.82 43.45 23.82 31.94 11.45 24.66"/><polygon class="cls-4" points="23.82 31.94 23.82 43.45 48.54 28.89 48.54 17.38 38.77 23.14 23.82 31.94"/><polygon class="cls-5" points="4.96 35.48 10.31 38.63 16.78 34.83 21.01 32.34 15.66 29.19 15.66 29.19 4.96 35.48"/><polygon class="cls-6" points="4.96 35.48 4.96 40.46 10.31 43.61 10.31 38.63 4.96 35.48"/><polygon class="cls-7" points="10.31 38.63 10.31 43.61 21.01 37.31 21.01 32.34 16.78 34.83 10.31 38.63"/></g></g></svg>