<svg xmlns="http://www.w3.org/2000/svg" viewBox="0 0 53.51 53.51"><defs><style>.cls-1{fill:none;stroke:#08a3f9;stroke-miterlimit:10;}.cls-2{fill:#004777;}.cls-3{fill:#001c39;}.cls-4{fill:#002a4d;}.cls-5{fill:#4f4e4e;}.cls-6{fill:#232222;}.cls-7{fill:#514f4f;}</style></defs><title>wea2Icon</title><g id="Capa_2" data-name="Capa 2"><g id="Capa_1-2" data-name="Capa 1"><rect class="cls-1" x="0.5" y="0.5" width="52.51" height="52.51"/><polygon class="cls-2" points="5.57 22.44 24.15 34.11 39.24 24.63 49.11 18.43 36.63 10.6 30.45 7 5.57 22.44"/><polygon class="cls-3" points="5.57 22.44 5.57 35.57 24.15 46.5 24.15 34.11 5.57 22.44"/><polygon class="cls-4" points="24.15 34.11 24.15 46.5 49.11 31.82 49.11 18.43 39.24 24.63 24.15 34.11"/><polygon class="cls-5" points="4.4 36.21 7.61 38.09 11.48 35.81 14.01 34.32 10.81 32.44 10.81 32.44 4.4 36.21"/><polygon class="cls-6" points="4.4 36.21 4.4 39.19 7.61 41.07 7.61 38.09 4.4 36.21"/><polygon class="cls-7" points="7.61 38.09 7.61 41.07 14.01 37.3 14.01 34.32 11.48 35.81 7.61 38.09"/><polygon class="cls-5" points="10.81 40.52 14.01 42.41 17.88 40.13 20.41 38.64 17.21 36.76 17.21 36.76 10.81 40.52"/><polygon class="cls-6" points="10.81 40.52 10.81 43.51 14.01 45.39 14.01 42.41 10.81 40.52"/><polygon class="cls-7" points="14.01 42.41 14.01 45.39 20.41 41.62 20.41 38.64 17.88 40.13 14.01 42.41"/><polygon class="cls-5" points="8.13 33.56 11.33 35.45 15.2 33.17 17.73 31.68 14.53 29.79 14.53 29.79 8.13 33.56"/><polygon class="cls-6" points="8.13 33.56 8.13 36.54 11.33 38.43 11.33 35.45 8.13 33.56"/><polygon class="cls-7" points="11.33 35.45 11.33 38.43 17.73 34.66 17.73 31.68 15.2 33.17 11.33 35.45"/></g></g></svg>