<svg xmlns="http://www.w3.org/2000/svg" viewBox="0 0 53.51 53.51"><defs><style>.cls-1{fill:none;stroke:#08a3f9;stroke-miterlimit:10;}.cls-2{fill:#bcbcbc;}.cls-3{fill:#e8eaea;}.cls-4{fill:#cacccc;}.cls-5{fill:#9e9e9e;}</style></defs><title>win2Icon</title><g id="Capa_2" data-name="Capa 2"><g id="Capa_1-2" data-name="Capa 1"><rect class="cls-1" x="0.5" y="0.5" width="52.51" height="52.51"/><polygon class="cls-2" points="23.81 41.96 23.81 41.96 23.65 23.71 23.61 19.2 23.58 16.29 23.54 11.78 23.53 10.76 23.53 10.76 37.24 18.21 37.41 37.07 37.52 49.41 23.81 41.96"/><polygon class="cls-3" points="47.97 11.76 37.24 18.21 23.53 10.76 34.26 4.31 47.97 11.76"/><polygon class="cls-4" points="48.25 42.96 37.52 49.41 37.41 37.07 37.24 18.21 47.97 11.76 48.25 42.96"/><path class="cls-5" d="M23.65,29.81l-17-9.2a5.61,5.61,0,0,1,0-7.39c1.29-2.61,4.9-1.84,4.9-1.84l12,6.49,0,4.52,0,2.9Z"/></g></g></svg>