<svg xmlns="http://www.w3.org/2000/svg" viewBox="0 0 53.51 53.51"><defs><style>.cls-1{fill:none;stroke:#08a3f9;stroke-miterlimit:10;}.cls-2{fill:#fff;}.cls-3{fill:#cacccc;}</style></defs><title>win3Icon</title><g id="Capa_2" data-name="Capa 2"><g id="Capa_1-2" data-name="Capa 1"><rect class="cls-1" x="0.5" y="0.5" width="52.51" height="52.51"/><path class="cls-2" d="M26.75,3.79A23.07,23.07,0,1,0,49.82,26.86,23.07,23.07,0,0,0,26.75,3.79ZM28.53,38A11.8,11.8,0,1,1,24.6,15.06a11.63,11.63,0,0,1,3.93.67,11.81,11.81,0,0,1,0,22.26Z"/><path class="cls-2" d="M28.53,38A11.8,11.8,0,1,1,24.6,15.06a11.63,11.63,0,0,1,3.93.67,11.81,11.81,0,0,0,0,22.26Z"/><path class="cls-3" d="M28.53,38A11.8,11.8,0,1,1,24.6,15.06a11.63,11.63,0,0,1,3.93.67,11.81,11.81,0,0,0,0,22.26Z"/></g></g></svg>